<?xml version="1.0" standalone="no"?>
<svg viewBox="0 0 200 200" xmlns="http://www.w3.org/2000/svg">
  <path fill="#FAECC1" d="M43.9,-78.2C55.1,-69.6,61.3,-54.2,66.9,-40.1C72.6,-26,77.7,-13,80.5,1.6C83.2,16.1,83.5,32.3,77.4,45.6C71.3,58.9,58.7,69.4,44.7,74.4C30.8,79.4,15.4,78.8,1.4,76.4C-12.6,74,-25.2,69.7,-37.8,63.9C-50.4,58.2,-63.1,50.9,-73,40C-83,29.1,-90.2,14.6,-91.2,-0.5C-92.1,-15.6,-86.6,-31.3,-77.4,-43.4C-68.2,-55.6,-55.2,-64.3,-41.6,-71.6C-28.1,-78.9,-14,-84.8,1.1,-86.7C16.3,-88.7,32.7,-86.8,43.9,-78.2Z" transform="translate(100 100)" />
</svg>
