<svg id="Layer_1" enable-background="new 0 0 128 128" height="512" viewBox="0 0 128 128" width="512" xmlns="http://www.w3.org/2000/svg"><g><g fill="#e6e7e8"><path d="m92.827 88.833c-.208 0-.418.007-.633.022-.425-3.052-1.972-5.732-4.187-7.644.286-.233.558-.486.797-.777 1.053-1.285 1.467-2.972 1.136-4.627-.509-2.544-2.855-4.389-5.578-4.389h-2.572c.006-.007.012-.015.018-.022 1.053-1.285 1.467-2.972 1.136-4.628-.509-2.543-2.855-4.389-5.578-4.389h-29.825l6.724-5.507c2.453-2.009 2.825-5.649.829-8.114-1.86-2.294-5.135-2.82-7.618-1.223-5.447 3.506-14.836 9.582-16.513 10.873-3.115 2.399-4.62 5.601-5.167 7.017h-15.309c-1.514 0-2.745 1.231-2.745 2.745v22 1.588 22c0 1.514 1.231 2.745 2.745 2.745h15.553c1.263 1.412 6.111 6.045 15.318 6.045h29.755c.061 0 .119-.013.18-.015 1.34 1.989 3.613 3.3 6.187 3.3 3.6 0 6.654-2.622 7.317-6.057.649.13 1.307.195 1.966.195 5.569 0 10.1-4.531 10.1-10.1 0-.627-.061-1.258-.182-1.885 3.69-1.539 6.109-5.124 6.109-9.191 0-5.493-4.47-9.962-9.963-9.962z"/><path d="m112.15 82.177c-4.488 0-8.14 3.651-8.14 8.139s3.651 8.139 8.14 8.139c4.488 0 8.139-3.651 8.139-8.139s-3.652-8.139-8.139-8.139z"/><circle cx="98.28" cy="79.311" r="6.73"/><path d="m122.258 20.966h-15.334v-3.324c0-.552-.448-1-1-1h-3v-3.975h6.25c2.068 0 3.75-1.682 3.75-3.75s-1.682-3.75-3.75-3.75h-21.166c-2.068 0-3.75 1.682-3.75 3.75s1.682 3.75 3.75 3.75h6.25v3.975h-3c-.552 0-1 .448-1 1v3.324h-10.482c-6.902 0-12.517 5.615-12.517 12.517v7.468c0 .552.448 1 1 1h10.97c.552 0 1-.448 1-1v-3.634c0-1.864 1.517-3.38 3.38-3.38h7.151c1.159 3.21 4.228 5.514 7.832 5.514s6.673-2.305 7.832-5.514h15.835c.552 0 1-.448 1-1v-10.97c-.001-.554-.448-1.001-1.001-1.001z"/><path d="m72.744 52.777c0 .552.448 1 1 1s1-.448 1-1v-2c0-.552-.448-1-1-1s-1 .448-1 1z"/><path d="m73.744 47.777c.552 0 1-.448 1-1v-2c0-.552-.448-1-1-1s-1 .448-1 1v2c0 .552.448 1 1 1z"/><path d="m72.744 58.777c0 .552.448 1 1 1s1-.448 1-1v-2c0-.552-.448-1-1-1s-1 .448-1 1z"/><path d="m67.027 53.612c.064.013.129.019.192.019.469 0 .888-.332.98-.809l.382-1.963c.105-.542-.249-1.067-.791-1.172-.544-.106-1.067.249-1.172.791l-.382 1.963c-.105.54.249 1.065.791 1.171z"/><path d="m68.363 47.741c.469 0 .888-.332.98-.809l.382-1.963c.105-.542-.248-1.067-.79-1.172-.542-.108-1.067.249-1.172.791l-.382 1.963c-.106.542.248 1.067.79 1.172.065.012.129.018.192.018z"/><path d="m65.882 59.501c.064.013.129.019.192.019.469 0 .888-.332.98-.809l.382-1.963c.105-.542-.249-1.067-.791-1.172-.542-.108-1.067.249-1.172.791l-.382 1.963c-.105.541.249 1.066.791 1.171z"/><path d="m79.698 49.685c-.542.105-.896.63-.791 1.172l.382 1.963c.093.478.511.809.98.809.063 0 .127-.006.192-.019.542-.105.896-.63.791-1.172l-.382-1.963c-.105-.541-.63-.898-1.172-.79z"/><path d="m80.053 56.747.382 1.963c.093.478.511.809.98.809.063 0 .127-.006.192-.019.542-.106.896-.63.79-1.172l-.382-1.963c-.106-.542-.629-.897-1.172-.791-.542.106-.896.631-.79 1.173z"/><path d="m78.553 43.796c-.542.105-.896.63-.79 1.172l.382 1.963c.093.478.511.809.98.809.063 0 .128-.006.192-.019.542-.105.896-.63.79-1.172l-.382-1.963c-.104-.541-.628-.901-1.172-.79z"/></g><g><g><path d="m71.71 91.962c.581-2.905-1.625-5.453-4.426-5.453l13.078-.013c2.173 0 4.171-1.455 4.598-3.586.581-2.905-1.625-5.453-4.426-5.453 2.801 0 5.007-2.549 4.426-5.454-.427-2.131-2.424-3.586-4.597-3.586h-6.825c2.801 0 5.007-2.549 4.426-5.454-.427-2.131-2.424-3.586-4.597-3.586h-32.625l8.89-7.281c2.036-1.667 2.342-4.666.685-6.71-1.536-1.895-4.248-2.332-6.3-1.012-5.309 3.418-14.788 9.549-16.444 10.825-3.817 2.94-5.069 7.225-5.069 7.225h-16.017c-.964 0-1.745.781-1.745 1.745v23.588c0 .964.781 1.745 1.745 1.745h16.018s4.596 6.045 14.854 6.045h29.755c2.172.001 4.169-1.454 4.596-3.585z" fill="#ffd7e5"/><path d="m97.79 94.796c0-4.95-4.013-8.963-8.963-8.963-.522 0-1.031.054-1.529.14-.318-5.992-5.263-10.756-11.334-10.756-.854 0-1.683.102-2.483.28.052-.45.084-.906.084-1.37 0-6.597-5.348-11.945-11.945-11.945-4.622 0-8.609 2.634-10.589 6.476.738 1.88.245 4.092-1.401 5.439l-8.89 7.281h32.625c2.173 0 4.171 1.455 4.597 3.586.581 2.905-1.625 5.454-4.426 5.454h6.825c2.173 0 4.171 1.455 4.598 3.586.581 2.905-1.625 5.454-4.426 5.454 2.801 0 5.007 2.548 4.426 5.453-.426 2.131-2.424 3.586-4.598 3.586l-9.553.009c-.409.186-.793.414-1.151.678 1.529.946 2.452 2.778 2.051 4.779-.379 1.895-2.003 3.249-3.886 3.527 1.099 1.993 3.219 3.344 5.656 3.344 3.519 0 6.375-2.817 6.448-6.318.893.293 1.844.456 2.834.456 5.026 0 9.1-4.074 9.1-9.1 0-.875-.13-1.718-.361-2.519 3.646-1.138 6.291-4.538 6.291-8.557z" fill="#d4fbff"/><g><path d="m115.289 86.316c0 3.943-3.196 7.139-7.139 7.139s-7.139-3.196-7.139-7.139 3.196-7.139 7.139-7.139c3.942-.001 7.139 3.196 7.139 7.139z" fill="#d4fbff"/><path d="m111.606 87.316c-.552 0-1-.448-1-1 0-1.355-1.102-2.457-2.457-2.457-.552 0-1-.448-1-1s.448-1 1-1c2.458 0 4.457 2 4.457 4.457 0 .552-.448 1-1 1z" fill="#fff"/></g><g><path d="m100.01 75.311c0 3.164-2.565 5.729-5.729 5.729s-5.729-2.565-5.729-5.729 2.565-5.729 5.729-5.729c3.164-.001 5.729 2.565 5.729 5.729z" fill="#d4fbff"/><path d="m97.055 76.311c-.552 0-1-.448-1-1 0-.979-.796-1.774-1.774-1.774-.552 0-1-.448-1-1s.448-1 1-1c2.081 0 3.774 1.693 3.774 3.774 0 .552-.448 1-1 1z" fill="#fff"/></g><path d="m71.71 113.962c.581-2.905-1.625-5.453-4.426-5.453l13.078-.013c2.173 0 4.171-1.455 4.598-3.586.581-2.905-1.625-5.453-4.426-5.453 2.801 0 5.007-2.549 4.426-5.454-.427-2.131-2.424-3.586-4.597-3.586h-6.825c2.801 0 5.007-2.549 4.426-5.453-.427-2.131-2.424-3.586-4.597-3.586h-32.625l8.89-7.281c2.036-1.667 2.342-4.666.685-6.71-1.536-1.895-4.248-2.332-6.3-1.012-5.309 3.418-14.788 9.549-16.444 10.825-3.817 2.94-5.069 7.225-5.069 7.225h-16.017c-.964 0-1.745.781-1.745 1.745v23.588c0 .964.781 1.745 1.745 1.745h16.018s4.596 6.045 14.854 6.045h29.755c2.172 0 4.169-1.455 4.596-3.586z" fill="#ffd7e5"/></g><g><g fill="#6dc9f7"><path d="m87.258 27.117v-9.151h-11.482c-6.361 0-11.517 5.156-11.517 11.517v7.468h10.97v-3.634c0-2.419 1.961-4.38 4.38-4.38h7.886c-.149-.584-.237-1.191-.237-1.82z"/><path d="m101.925 17.965v9.151c0 .629-.088 1.236-.237 1.819h16.57v-10.97z"/></g><path d="m94.592 34.45c-4.05 0-7.333-3.283-7.333-7.333v-13.475h14.667v13.475c-.001 4.05-3.284 7.333-7.334 7.333z" fill="#6dc9f7"/><path d="m94.592 31.45c-4.05 0-7.333-3.283-7.333-7.333v3c0 4.05 3.283 7.333 7.333 7.333s7.333-3.283 7.333-7.333v-3c0 4.05-3.283 7.333-7.333 7.333z" fill="#fff"/><g fill="#6dc9f7"><path d="m91.258 7.667h6.667v5.975h-6.667z"/><path d="m105.175 7.667h-21.167c-1.519 0-2.75-1.231-2.75-2.75 0-1.519 1.231-2.75 2.75-2.75h21.167c1.519 0 2.75 1.231 2.75 2.75 0 1.519-1.231 2.75-2.75 2.75z"/></g></g><g fill="#3a2c60"><path d="m88.827 84.833c-.208 0-.418.007-.632.022-.426-3.053-1.971-5.734-4.185-7.646.285-.232.557-.485.795-.776 1.053-1.285 1.467-2.972 1.136-4.627-.509-2.543-2.855-4.39-5.578-4.39h-2.573c.006-.007.012-.015.019-.022 1.053-1.285 1.467-2.972 1.136-4.627-.509-2.543-2.854-4.39-5.578-4.39h-29.826l6.725-5.507c2.454-2.01 2.825-5.649.828-8.113-1.861-2.295-5.136-2.82-7.618-1.223-5.447 3.507-14.836 9.583-16.512 10.873-3.115 2.399-4.62 5.602-5.167 7.017h-15.311c-1.513 0-2.745 1.231-2.745 2.745v22 1.588 22c0 1.513 1.231 2.745 2.745 2.745h15.554c1.263 1.412 6.11 6.045 15.318 6.045h6.484c.552 0 1-.448 1-1s-.448-1-1-1h-6.484c-9.593 0-13.881-5.422-14.058-5.65-.189-.249-.483-.395-.796-.395h-16.018c-.411 0-.745-.334-.745-.745v-23.587c0-.411.334-.745.745-.745h16.018c.444 0 .835-.293.96-.72.012-.04 1.201-4.003 4.719-6.712 1.188-.915 7.156-4.843 16.375-10.776 1.622-1.044 3.764-.701 4.981.8 1.306 1.612 1.063 3.993-.542 5.307l-8.89 7.28c-.327.268-.45.712-.308 1.11.143.398.52.664.942.664h32.625c1.773 0 3.294 1.17 3.617 2.782.216 1.082-.04 2.135-.722 2.967-.672.82-1.665 1.291-2.724 1.291h-18.804c-.552 0-1 .448-1 1s.448 1 1 1h25.629c1.773 0 3.294 1.17 3.617 2.782.216 1.082-.04 2.135-.722 2.967-.672.82-1.665 1.29-2.724 1.29h-25.8c-.552 0-1 .448-1 1s.448 1 1 1h25.801c1.059 0 2.051.47 2.723 1.29.682.832.938 1.886.722 2.967-.323 1.612-1.844 2.783-3.618 2.783l-25.628.013c-.552 0-1 .448-1 1s.448 1 1 1h12.551c1.059 0 2.052.47 2.724 1.29.682.832.938 1.886.722 2.967-.323 1.612-1.844 2.782-3.617 2.782h-7.29c-.552 0-1 .448-1 1s.448 1 1 1c0 0 7.419.002 7.485 0 1.379 2.046 3.68 3.285 6.172 3.285 3.6 0 6.654-2.622 7.316-6.057.649.13 1.307.195 1.966.195 5.569 0 10.1-4.531 10.1-10.1 0-.627-.061-1.259-.182-1.885 3.69-1.539 6.109-5.123 6.109-9.191.001-5.494-4.469-9.963-9.962-9.963zm-8.465-15.416c1.773 0 3.294 1.17 3.617 2.782.216 1.082-.04 2.135-.722 2.967-.272.332-.6.597-.961.802-2.229-1.34-4.903-1.999-7.733-1.668.001-.058.001-.115.001-.172 0-1.663-.326-3.248-.9-4.709zm-36.886-3.882c-5.444 3.503-14.828 9.575-16.512 10.873-3.116 2.399-4.62 5.601-5.167 7.017h-15.311c-.26 0-.506.048-.745.116v-19.371c0-.411.334-.745.745-.745h16.018c.444 0 .835-.293.96-.72.012-.04 1.201-4.003 4.719-6.713 1.182-.91 7.15-4.838 16.374-10.776 1.623-1.045 3.765-.7 4.982.801 1.306 1.611 1.063 3.992-.542 5.307l-8.89 7.28c-.327.268-.45.712-.308 1.11.143.398.52.664.942.664h32.625c1.773 0 3.294 1.17 3.617 2.782.216 1.082-.04 2.135-.722 2.967-.672.82-1.665 1.291-2.724 1.291h-.867c-2.274-3.731-6.37-6.236-11.05-6.236-4.264 0-8.171 2.086-10.57 5.533-1.866-2.254-5.108-2.767-7.574-1.18zm47.727 36.863c-.519.162-.813.709-.663 1.231.213.742.322 1.497.322 2.243 0 4.466-3.634 8.1-8.1 8.1-.851 0-1.7-.137-2.522-.406-.302-.099-.632-.049-.89.134s-.415.478-.422.795c-.062 2.944-2.506 5.339-5.448 5.339-1.551 0-2.994-.673-4.013-1.793 1.629-.711 2.872-2.121 3.224-3.882.332-1.656-.083-3.342-1.136-4.627-.007-.009-.015-.018-.022-.026l8.83-.009c2.723 0 5.069-1.846 5.578-4.39.331-1.656-.083-3.342-1.136-4.627-.323-.394-.693-.736-1.1-1.022.406-.286.777-.628 1.1-1.022 1.053-1.285 1.467-2.972 1.136-4.627-.509-2.543-2.855-4.389-5.578-4.389h-2.573c.006-.007.012-.015.019-.022 1.053-1.285 1.467-2.972 1.136-4.627-.509-2.543-2.854-4.39-5.578-4.39h-29.826l6.725-5.507c1.848-1.514 2.512-3.952 1.875-6.117 1.942-3.44 5.526-5.573 9.48-5.573 6.035 0 10.945 4.91 10.945 10.945 0 .385-.025.796-.078 1.257-.037.321.084.641.325.857s.57.302.886.232c6.438-1.438 12.269 3.312 12.601 9.553.015.285.151.55.375.729.223.179.511.252.794.204.487-.084.932-.125 1.358-.125 4.391 0 7.963 3.572 7.963 7.963 0 3.5-2.246 6.555-5.587 7.599z"/><path d="m108.149 78.176c-4.488 0-8.14 3.651-8.14 8.14 0 4.488 3.651 8.139 8.14 8.139 4.488 0 8.139-3.651 8.139-8.139.001-4.488-3.651-8.14-8.139-8.14zm0 14.279c-3.385 0-6.14-2.754-6.14-6.139s2.754-6.14 6.14-6.14 6.139 2.754 6.139 6.14-2.753 6.139-6.139 6.139z"/><path d="m94.28 68.582c-3.71 0-6.729 3.019-6.729 6.729s3.019 6.729 6.729 6.729 6.729-3.019 6.729-6.729-3.018-6.729-6.729-6.729zm0 11.458c-2.607 0-4.729-2.122-4.729-4.729 0-2.608 2.122-4.729 4.729-4.729 2.608 0 4.729 2.122 4.729 4.729.001 2.607-2.121 4.729-4.729 4.729z"/><path d="m55.133 116.548h-6.75c-.552 0-1 .448-1 1s.448 1 1 1h6.75c.552 0 1-.448 1-1s-.447-1-1-1z"/><path d="m118.258 16.965h-15.333v-3.323c0-.552-.448-1-1-1h-3v-3.975h6.25c2.068 0 3.75-1.682 3.75-3.75s-1.682-3.75-3.75-3.75h-21.167c-2.068 0-3.75 1.682-3.75 3.75s1.682 3.75 3.75 3.75h6.25v3.975h-3c-.552 0-1 .448-1 1v3.323h-10.483c-6.902 0-12.517 5.615-12.517 12.518v7.468c0 .552.448 1 1 1h10.97c.552 0 1-.448 1-1v-3.634c0-1.864 1.517-3.381 3.38-3.381h7.151c1.159 3.21 4.228 5.515 7.832 5.515s6.673-2.305 7.832-5.515h15.835c.552 0 1-.448 1-1v-10.97c0-.553-.447-1.001-1-1.001zm-36-12.048c0-.965.785-1.75 1.75-1.75h21.167c.965 0 1.75.785 1.75 1.75s-.785 1.75-1.75 1.75h-21.167c-.965 0-1.75-.785-1.75-1.75zm10 3.75h4.667v3.975h-4.667zm-12.649 19.269c-2.967 0-5.38 2.414-5.38 5.381v2.634h-8.97v-6.468c0-5.799 4.718-10.518 10.517-10.518h10.483v8.151c0 .276.015.549.041.819h-6.691zm21.316-.819c0 3.492-2.841 6.333-6.333 6.333s-6.333-2.841-6.333-6.333v-12.475h12.667v12.475zm16.333.819h-14.375c.026-.27.041-.542.041-.819v-8.151h14.333v8.97z"/><path d="m68.744 54.777c0 .552.448 1 1 1s1-.448 1-1v-2c0-.552-.448-1-1-1s-1 .448-1 1z"/><path d="m69.744 43.777c.552 0 1-.448 1-1v-2c0-.552-.448-1-1-1s-1 .448-1 1v2c0 .553.448 1 1 1z"/><path d="m68.744 48.777c0 .552.448 1 1 1s1-.448 1-1v-2c0-.552-.448-1-1-1s-1 .448-1 1z"/><path d="m61.881 55.501c.064.013.129.019.192.019.469 0 .888-.332.98-.809l.382-1.963c.105-.542-.249-1.067-.791-1.172-.542-.107-1.067.249-1.172.791l-.382 1.963c-.105.541.249 1.066.791 1.171z"/><path d="m63.026 49.612c.064.013.129.019.192.019.469 0 .888-.332.98-.809l.382-1.963c.105-.542-.249-1.067-.791-1.172-.544-.105-1.067.249-1.172.791l-.382 1.963c-.105.54.249 1.065.791 1.171z"/><path d="m64.363 43.741c.469 0 .888-.332.98-.809l.382-1.963c.105-.542-.249-1.067-.791-1.172-.542-.107-1.067.249-1.172.791l-.382 1.963c-.105.542.249 1.067.791 1.172.065.012.129.018.192.018z"/><path d="m76.053 52.748.382 1.963c.093.478.511.809.98.809.063 0 .127-.006.192-.019.542-.105.896-.63.791-1.172l-.382-1.963c-.105-.542-.629-.901-1.172-.791-.543.106-.897.631-.791 1.173z"/><path d="m75.698 45.686c-.542.105-.896.63-.791 1.172l.382 1.963c.093.478.511.809.98.809.063 0 .127-.006.192-.019.542-.105.896-.63.791-1.172l-.382-1.963c-.105-.542-.627-.899-1.172-.79z"/><path d="m74.553 39.796c-.542.105-.896.63-.791 1.172l.382 1.963c.093.478.511.809.98.809.063 0 .127-.006.192-.019.542-.105.896-.63.791-1.172l-.382-1.963c-.104-.541-.629-.9-1.172-.79z"/></g></g></g></svg>