<svg width="50" height="50" viewBox="0 0 50 50" xmlns="http://www.w3.org/2000/svg"><g fill="none"><path d="M39.716 48.794H10.213V10.213a2.269 2.269 0 012.27-2.27h24.964a2.269 2.269 0 012.27 2.27v38.581z" fill="#FFF"/><path d="M24.965 34.043h9.078v14.752h-9.078zm-9.079 0h9.078v14.752h-9.078z" fill="#3AADD9"/><path d="M1.135 48.794h9.078V14.752H3.404a2.269 2.269 0 00-2.27 2.27v31.772z" fill="#FFF"/><g fill="#B0DEF0"><path d="M14.752 21.56h6.809v7.943h-6.81z"/><path d="M21.56 21.56h6.809v7.943h-6.81z"/><path d="M28.369 21.56h6.809v7.943h-6.81z"/></g><path fill="#3AADD9" d="M1.135 41.986h9.078v6.809H1.135z"/><path d="M39.716 48.794h9.078V17.021a2.269 2.269 0 00-2.27-2.27h-6.808v34.043z" fill="#FFF"/><path d="M34.043 32.908H15.886c-.627 0-1.134.508-1.134 1.135v14.751c0 .627.507 1.135 1.134 1.135h18.157c.627 0 1.134-.508 1.134-1.135V34.043c0-.627-.507-1.135-1.134-1.135zm-17.022 2.27h6.809V47.66h-6.81V35.177zM32.908 47.66h-6.809V35.177h6.809V47.66zm2.269-27.234H14.752c-.628 0-1.135.508-1.135 1.134v7.944c0 .626.507 1.134 1.135 1.134h20.425c.628 0 1.135-.508 1.135-1.134V21.56c0-.626-.507-1.134-1.135-1.134zm-19.29 2.269h4.539v5.674h-4.54v-5.674zm6.808 0h4.539v5.674h-4.539v-5.674zm11.348 5.674h-4.54v-5.674h4.54v5.674z" fill="#000"/><circle fill="#000" cx="5.674" cy="19.291" r="1.135"/><circle fill="#000" cx="5.674" cy="23.83" r="1.135"/><circle fill="#000" cx="5.674" cy="28.369" r="1.135"/><circle fill="#000" cx="5.674" cy="32.908" r="1.135"/><circle fill="#000" cx="5.674" cy="37.447" r="1.135"/><circle fill="#000" cx="44.255" cy="19.291" r="1.135"/><circle fill="#000" cx="44.255" cy="23.83" r="1.135"/><circle fill="#000" cx="44.255" cy="28.369" r="1.135"/><circle fill="#000" cx="44.255" cy="32.908" r="1.135"/><circle fill="#000" cx="44.255" cy="37.447" r="1.135"/><path fill="#3AADD9" d="M39.716 41.986h9.078v6.809h-9.078z"/><path d="M46.525 13.617H40.85v-3.404a3.408 3.408 0 00-3.404-3.404H12.482a3.408 3.408 0 00-3.404 3.404v3.404H3.404A3.408 3.408 0 000 17.021v31.773c0 .627.507 1.135 1.135 1.135h47.66c.627 0 1.134-.508 1.134-1.135V17.021a3.408 3.408 0 00-3.404-3.404zM2.269 17.021c0-.625.509-1.135 1.135-1.135h5.674v24.965H2.269v-23.83zm0 26.1h6.809v4.539H2.269v-4.54zm9.079-1.135V10.212c0-.624.508-1.134 1.134-1.134h24.965c.626 0 1.135.51 1.135 1.135V47.66H11.348v-5.674zM47.66 47.66h-6.81v-4.54h6.809v4.54zm0-6.809h-6.81V15.886h5.674c.626 0 1.135.51 1.135 1.135v23.83z" fill="#000"/><g transform="translate(17.021 1.064)" fill="#FFF"><circle cx="7.943" cy="8.014" r="7.943"/><circle cx="7.943" cy="8.014" r="7.943"/></g><path d="M24.965 18.156c-5.006 0-9.078-4.073-9.078-9.078C15.887 4.073 19.959 0 24.965 0c5.005 0 9.078 4.073 9.078 9.078 0 5.005-4.073 9.078-9.078 9.078zm0-15.887a6.815 6.815 0 00-6.809 6.809 6.815 6.815 0 006.809 6.808 6.815 6.815 0 006.808-6.808 6.815 6.815 0 00-6.808-6.809z" fill="#000"/><path d="M22.695 12.482a1.134 1.134 0 01-1.135-1.135V6.81a1.134 1.134 0 112.27 0v4.539c0 .626-.507 1.134-1.135 1.134zm4.539 0a1.134 1.134 0 01-1.135-1.135V6.81a1.134 1.134 0 112.27 0v4.539c0 .626-.507 1.134-1.135 1.134z" fill="#000"/><path d="M27.234 10.213h-4.539a1.134 1.134 0 110-2.27h4.539a1.134 1.134 0 110 2.27z" fill="#000"/></g></svg>