<svg width="24" height="24" viewBox="0 0 24 24" fill="none" xmlns="http://www.w3.org/2000/svg">
<path fill-rule="evenodd" clip-rule="evenodd" d="M14.4 8.4V8.4C13.7373 8.4 13.2 7.86274 13.2 7.2C13.2 6.53726 13.7373 6 14.4 6H20.4V6C21.0627 6 21.6 6.53726 21.6 7.2V13.2C21.6 13.8627 21.0627 14.4 20.4 14.4C19.7373 14.4 19.2 13.8627 19.2 13.2V10.0968L14.0484 15.2484V15.2484C13.5798 15.7169 12.8202 15.7169 12.3516 15.2484L9.6 12.4968L4.4484 17.6484V17.6484C3.9717 18.1088 3.21202 18.0956 2.7516 17.6189C2.30246 17.1539 2.30246 16.4166 2.7516 15.9516L8.7516 9.95161V9.95161C9.2202 9.48315 9.9798 9.48315 10.4484 9.95161L13.2 12.7032L17.5032 8.4H14.4V8.4Z" fill="#FC8181"/>
</svg>
