<svg width="31" height="50" viewBox="0 0 31 50" xmlns="http://www.w3.org/2000/svg"><g fill="none"><path d="M27.414 40.405s2.51-3.729 2.51-5.967l.143-10.687.06-4.531v-4.786C30.128 6.462 23.565 0 15.469 0S.808 6.462.808 14.434v20.004c0 2.238.903 4.385 2.51 5.967l3.118 1.868 17.04.258h2.008l1.93-2.126z" fill="#9B8E99"/><path d="M11.975 42.173l-3.117-1.867a8.373 8.373 0 01-2.51-5.967V14.334c0-6.947 4.987-12.748 11.627-14.124A14.99 14.99 0 0015.468 0C7.372 0 .808 6.462.808 14.434v20.004c0 2.238.903 4.385 2.51 5.967l3.118 1.868 17.04.258h2.008l.136-.151-13.645-.207z" fill="#8B8089"/><path d="M2.837 23.944h3.24v-5.556h-3.24c-1.558 0-2.821 1.244-2.821 2.778s1.263 2.778 2.821 2.778zm25.263 0h-3.444v-5.556h3.443c1.558 0 2.822 1.244 2.822 2.778s-1.264 2.778-2.822 2.778z" fill="#EB9C8D"/><path d="M27.404 40.396l-8.597-4.669-1.29-.57h-1.22L3.706 41.24l-1.143 3.425s.105 3.802.139 5.273h25.895a.72.72 0 00.726-.715v-5.627a3.643 3.643 0 00-1.918-3.199z" fill="#FEC165"/><path d="M12.937 36.78v-1.562l-1.011.51-8.598 4.668a3.643 3.643 0 00-1.918 3.199v5.627a.72.72 0 00.726.715h1.897v-4.45c0-1.33.734-2.555 1.918-3.198l7.628-4.142V36.47l-.642.31z" fill="#FDB441"/><path d="M18.807 35.727l-1.29-.57h-.647c-2.235 1.15-6.204 3.112-7.796 3.897.725 2.754 3.271 4.793 6.292 4.793 3.584 0 6.5-2.87 6.5-6.4v-.058l-3.06-1.662z" fill="#FDB441"/><path d="M12.937 30.722v8.449l2.462 1.663c1.885-.017 3.408-1.527 3.408-3.387v-6.726h-5.87z" fill="#F1B0A2"/><path d="M12.58 35.398l-.277.14-.377.19-3.06 1.66v.06c0 .554.074 1.092.21 1.605h-.002.002a6.333 6.333 0 00.488 1.274l3.31-1.798-.295-3.131z" fill="#FEA613"/><path d="M16.795 40.53a3.376 3.376 0 01-1.624-2.877v-6.726h-1.212v-.205h-2.034v6.725c0 1.871 1.54 3.388 3.441 3.388a3.488 3.488 0 001.43-.306z" fill="#EB9C8D"/><path d="M26.653 17.212v6.44c0 6.094-5.017 11.033-11.206 11.033-6.189 0-11.206-4.94-11.206-11.033v-9.39a.9.9 0 01.907-.893h4.555A24.31 24.31 0 0023.692 8.95a13.033 13.033 0 012.961 8.26z" fill="#F1B0A2"/><path d="M18.944 34.033c-6.188 0-11.206-4.94-11.206-11.033v-9.39a.88.88 0 01.035-.241H5.148a.9.9 0 00-.907.893v9.39c0 6.094 5.017 11.033 11.206 11.033 1.34 0 2.627-.232 3.818-.657-.106.003-.214.005-.32.005z" fill="#EB9C8D"/><path d="M8.697 17.129a.768.768 0 01-.574-.255.745.745 0 01.068-1.063c1.394-1.212 2.93-1.212 4.324 0a.745.745 0 01.067 1.063.773.773 0 01-1.08.066c-.816-.71-1.482-.71-2.3 0a.769.769 0 01-.505.189z" fill="#9B8E99"/><path d="M7.432 49.937v-2.574a.759.759 0 00-.765-.753.759.759 0 00-.764.753v2.574h1.53zm17.398 0v-2.574a.759.759 0 00-.765-.753.759.759 0 00-.765.753v2.574h1.53z" fill="#FDB441"/><path d="M10.36 20.212a.759.759 0 01-.765-.753v-.876a.76.76 0 01.765-.753c.423 0 .765.337.765.753v.876a.759.759 0 01-.765.753zm11.777-3.083a.769.769 0 01-.506-.189c-.816-.71-1.483-.71-2.3 0a.773.773 0 01-1.08-.066.745.745 0 01.068-1.063c1.394-1.211 2.93-1.212 4.324 0a.745.745 0 01.068 1.063.768.768 0 01-.574.255zm-1.663 3.083a.759.759 0 01-.765-.753v-.876a.76.76 0 01.765-.753c.423 0 .765.337.765.753v.876a.759.759 0 01-.765.753z" fill="#9B8E99"/><path d="M26.652 23.75l-.43.276a.81.81 0 00-.019.012l-4.455 3.033-2.166 1.335a.746.746 0 00-.243 1.037.767.767 0 001.054.24l2.18-1.345a.795.795 0 00.03-.019l3.859-2.626c.12-.63.184-1.28.19-1.942zm.002-5.433l-.502.434-4.677 3.991-2.258 1.87a.745.745 0 00-.093 1.061.768.768 0 00.586.268.769.769 0 00.492-.176l2.262-1.874.009-.007 4.18-3.568v-1.999z" fill="#F9F7F8"/><path d="M4.45 25.778l3.866 2.692.027.019 1.603 1.015a.769.769 0 001.057-.225.746.746 0 00-.229-1.041l-1.589-1.007-4.354-3.033a.788.788 0 00-.02-.012l-.568-.372c.01.67.08 1.327.206 1.964z" fill="#EFEDEF"/><path d="M4.24 18.268v2.021l4.111 3.586 1.904 1.712a.769.769 0 00.515.197.768.768 0 00.565-.246.745.745 0 00-.049-1.064L9.378 22.76a.304.304 0 00-.008-.008l-4.574-3.99-.555-.493z" fill="#F9F7F8"/><path d="M4.796 18.76l-.555-.492v2.021l3.503 3.056c-.003-.114-.006-.23-.006-.345v-1.672l-2.942-2.567z" fill="#EFEDEF"/><path d="M21.972 23.315c.73 1.812.633 3.623-.04 5.433a.569.569 0 01-.219.277c-4.017 2.695-8.206 2.724-12.573.004a.577.577 0 01-.24-.298c-.669-1.926-.693-3.733-.037-5.412a.587.587 0 01.353-.34c4.148-1.43 8.283-1.445 12.407 0a.59.59 0 01.349.336z" fill="#9CF8D2"/><path d="M21.43 29.21c-3.93 2.51-8.026 2.475-12.29-.181a.577.577 0 01-.24-.298c-.669-1.926-.693-3.733-.037-5.412a.587.587 0 01.353-.34 20.298 20.298 0 012.635-.717c-.251.772-.197 2.048-.077 3.145a3.298 3.298 0 002.258 2.771c2.122.698 5.477 1.591 7.397 1.032z" fill="#6CF5C2"/></g></svg>