<svg width="20" height="20" viewBox="0 0 20 20" fill="none" xmlns="http://www.w3.org/2000/svg">
<path fill-rule="evenodd" clip-rule="evenodd" d="M8 4V4C5.79086 4 4 5.79086 4 8C4 10.2091 5.79086 12 8 12H8C10.2091 12 12 10.2091 12 8C12 5.79086 10.2091 4 8 4H8ZM2 8V7.99924C2 4.68553 4.68629 1.99924 8 1.99924C11.3137 1.99924 14 4.68553 14 7.99924C14 9.24557 13.6119 10.461 12.8896 11.4766L17.7066 16.2936V16.2936C18.0902 16.6909 18.0792 17.3239 17.682 17.7076C17.2945 18.0819 16.6801 18.0819 16.2926 17.7076L11.4766 12.8916V12.8916C8.77581 14.8117 5.0299 14.1788 3.10985 11.478C2.38761 10.4621 1.99969 9.24649 2 8.00001L2 8Z" fill="#A0AEC0"/>
</svg>
