<svg width="22" height="22" viewBox="0 0 22 22" fill="none" xmlns="http://www.w3.org/2000/svg">
<path d="M11.0011 20.1666V20.1666C10.5272 20.1643 10.0795 19.9488 9.78192 19.58L5.92276 14.905V14.905C5.46266 14.3308 5.37016 13.5445 5.68442 12.8792V12.8792C5.93956 12.3003 6.50941 11.924 7.14192 11.9167H14.8603V11.9167C15.4928 11.924 16.0626 12.3003 16.3178 12.8792V12.8792C16.632 13.5445 16.5395 14.3308 16.0794 14.905L12.2203 19.58V19.58C11.9227 19.9488 11.475 20.1643 11.0011 20.1666V20.1666ZM7.41692 13.75L11.0011 18.1683L14.6678 13.75H7.41692Z" fill="#CBD5E0"/>
<path d="M14.8614 10.0075H7.14303V10.0075C6.52113 10.0084 5.95408 9.6518 5.68553 9.09087V9.09087C5.37127 8.42554 5.46377 7.63926 5.92387 7.06503L9.78303 2.39003V2.39003C10.3666 1.7167 11.3855 1.64393 12.0588 2.2275C12.1168 2.27774 12.1711 2.33206 12.2214 2.39003L16.0805 7.06503V7.06503C16.5406 7.63926 16.6331 8.42554 16.3189 9.09087V9.09087C16.0503 9.6518 15.4833 10.0084 14.8614 10.0075L14.8614 10.0075ZM7.33553 8.1742H14.5772L11.0022 3.75586L7.33553 8.1742Z" fill="#CBD5E0"/>
</svg>
