<svg width="22" height="22" viewBox="0 0 22 22" fill="none" xmlns="http://www.w3.org/2000/svg">
<path d="M11.0011 20.1667V20.1667C10.5272 20.1643 10.0795 19.9489 9.78192 19.58L5.92276 14.905V14.905C5.46266 14.3308 5.37016 13.5445 5.68442 12.8792V12.8792C5.93956 12.3004 6.50941 11.924 7.14192 11.9167H14.8603V11.9167C15.4928 11.924 16.0626 12.3004 16.3178 12.8792V12.8792C16.632 13.5445 16.5395 14.3308 16.0794 14.905L12.2203 19.58V19.58C11.9227 19.9489 11.475 20.1643 11.0011 20.1667V20.1667ZM7.41692 13.75L11.0011 18.1683L14.6678 13.75H7.41692Z" fill="#A0AEC0"/>
<path d="M14.8614 10.0076H7.14302C6.52112 10.0085 5.95407 9.65182 5.68552 9.09088C5.37126 8.42555 5.46376 7.63928 5.92385 7.06505L9.78302 2.39005C10.3666 1.71672 11.3855 1.64396 12.0588 2.22752C12.1168 2.27776 12.1711 2.33208 12.2214 2.39005L16.0805 7.06505C16.5406 7.63928 16.6331 8.42556 16.3189 9.09088C16.0503 9.65182 15.4833 10.0084 14.8614 10.0076Z" fill="#E2E8F0"/>
</svg>
