<svg width="22" height="22" viewBox="0 0 22 22" fill="none" xmlns="http://www.w3.org/2000/svg">
<path d="M11.0011 20.1667C10.5272 20.1643 10.0795 19.9488 9.78192 19.58L5.92276 14.905C5.46266 14.3308 5.37016 13.5445 5.68442 12.8792C5.93956 12.3003 6.50941 11.924 7.14192 11.9167H14.8603C15.4928 11.924 16.0626 12.3003 16.3178 12.8792C16.632 13.5445 16.5395 14.3308 16.0794 14.905L12.2203 19.58C11.9227 19.9488 11.475 20.1643 11.0011 20.1667Z" fill="#718096"/>
<path d="M14.8613 10.0076H7.14301V10.0076C6.52111 10.0085 5.95406 9.65182 5.68551 9.09089V9.09089C5.37124 8.42556 5.46375 7.63928 5.92384 7.06506L9.78301 2.39006V2.39006C10.3666 1.71673 11.3855 1.64396 12.0588 2.22752C12.1168 2.27777 12.1711 2.33208 12.2213 2.39006L16.0805 7.06505V7.06505C16.5406 7.63928 16.6331 8.42556 16.3188 9.09089V9.09089C16.0503 9.65182 15.4832 10.0085 14.8613 10.0076L14.8613 10.0076ZM7.33551 8.17422H14.5772L11.0022 3.75589L7.33551 8.17422Z" fill="#CBD5E0"/>
</svg>
